<svg version="1.1" id="Layer_1" xmlns="http://www.w3.org/2000/svg" xmlns:xlink="http://www.w3.org/1999/xlink" x="0px" y="0px"
	 width="100%" viewBox="0 0 512 512" enable-background="new 0 0 512 512" xml:space="preserve">
<path fill="#556080" opacity="1.000000" stroke="none" 
	d="
M1.000001,289.000000 
	C1.000000,267.979095 1.000000,246.958206 1.415061,225.542938 
	C3.197526,218.330582 4.570787,211.513794 5.931329,204.694458 
	C11.979038,174.381989 23.456825,146.271896 39.929131,120.132561 
	C53.872665,98.006050 71.054008,78.772758 90.765862,61.650604 
	C104.732300,49.519047 119.894653,39.133381 136.170975,30.512585 
	C161.449234,17.123878 188.139069,7.708620 216.645157,3.854656 
	C219.506454,3.467816 222.218628,1.977954 225.000000,0.999999 
	C246.020889,1.000000 267.041779,1.000000 288.456818,1.414513 
	C289.521942,2.210839 290.154266,2.816417 290.869873,2.940213 
	C298.948547,4.337761 307.134949,5.247902 315.110870,7.079452 
	C343.370361,13.568825 369.833557,24.513416 394.315460,40.106541 
	C416.350769,54.141350 435.626831,71.325294 452.669647,91.112137 
	C465.395355,105.886726 476.123688,121.982353 485.031891,139.267548 
	C497.605682,163.665390 506.368866,189.338699 510.143280,216.633438 
	C510.539581,219.499176 512.021667,222.214752 513.000000,225.000000 
	C513.000000,246.020889 513.000000,267.041779 512.585449,288.458649 
	C511.096710,294.902222 510.262238,301.004089 508.906799,306.987976 
	C503.125122,332.512268 494.864655,357.073792 482.084167,380.117493 
	C466.288361,408.597778 446.050812,433.232117 420.837830,453.821472 
	C414.992462,450.035858 409.634247,446.010468 403.751678,443.014618 
	C378.296265,430.050812 352.716431,417.329712 327.120972,404.643158 
	C316.269043,399.264374 309.449280,390.738373 308.474976,378.774841 
	C307.571503,367.680756 308.124969,356.463623 308.190002,345.301575 
	C308.196808,344.131683 309.039581,342.807556 309.830139,341.825073 
	C323.318115,325.062744 333.193207,306.360962 340.252808,286.077209 
	C340.913147,284.179901 342.781738,282.207825 344.602905,281.294647 
	C352.986206,277.090973 358.665771,270.630676 359.145782,261.299011 
	C359.828644,248.023331 359.926636,234.655350 359.116943,221.397491 
	C358.817078,216.487640 355.215393,211.789398 353.175690,206.970886 
	C352.376831,205.083664 351.127045,203.136032 351.111969,201.207855 
	C350.982910,184.710800 350.938141,168.209839 351.159943,151.713974 
	C351.566071,121.508087 336.384827,97.560387 307.909851,87.090294 
	C273.962921,74.608185 239.362610,74.733482 205.457764,87.279083 
	C178.011765,97.434753 162.693634,121.275032 162.838791,150.352478 
	C162.916992,166.017166 162.817566,181.683945 163.053436,197.345917 
	C163.121048,201.835358 162.362488,205.517578 159.398743,209.202393 
	C157.126816,212.027039 155.240250,215.998230 155.086823,219.541962 
	C154.497345,233.157700 154.384216,246.813034 154.683578,260.440643 
	C154.843918,267.739746 158.524796,273.670044 164.356049,278.274048 
	C165.640305,279.287994 166.520294,281.191254 166.950958,282.850006 
	C170.775681,297.581085 176.724182,311.414429 184.268524,324.590637 
	C188.500031,331.981018 194.469177,338.900696 196.559448,346.846863 
	C198.691559,354.952057 196.832062,364.060547 197.075867,372.719757 
	C197.480316,387.084076 190.943481,397.099548 178.557663,403.805725 
	C159.412964,414.171387 140.226303,424.465698 121.243629,435.121979 
	C111.271782,440.719849 101.695503,447.022339 91.631180,452.879822 
	C81.970520,443.424835 72.362610,434.337616 63.326660,424.713409 
	C48.851162,409.295471 37.470066,391.603210 28.023651,372.793518 
	C16.053246,348.958069 7.355196,323.960419 3.850293,297.334381 
	C3.474646,294.480621 1.977108,291.774567 1.000001,289.000000 
z"/>
<path fill="#E7ECED" opacity="1.000000" stroke="none" 
	d="
M91.940582,453.006653 
	C101.695503,447.022339 111.271782,440.719849 121.243629,435.121979 
	C140.226303,424.465698 159.412964,414.171387 178.557663,403.805725 
	C190.943481,397.099548 197.480316,387.084076 197.075867,372.719757 
	C196.832062,364.060547 198.691559,354.952057 196.559448,346.846863 
	C194.469177,338.900696 188.500031,331.981018 184.268524,324.590637 
	C176.724182,311.414429 170.775681,297.581085 166.950958,282.850006 
	C166.520294,281.191254 165.640305,279.287994 164.356049,278.274048 
	C158.524796,273.670044 154.843918,267.739746 154.683578,260.440643 
	C154.384216,246.813034 154.497345,233.157700 155.086823,219.541962 
	C155.240250,215.998230 157.126816,212.027039 159.398743,209.202393 
	C162.362488,205.517578 163.121048,201.835358 163.053436,197.345917 
	C162.817566,181.683945 162.916992,166.017166 162.838791,150.352478 
	C162.693634,121.275032 178.011765,97.434753 205.457764,87.279083 
	C239.362610,74.733482 273.962921,74.608185 307.909851,87.090294 
	C336.384827,97.560387 351.566071,121.508087 351.159943,151.713974 
	C350.938141,168.209839 350.982910,184.710800 351.111969,201.207855 
	C351.127045,203.136032 352.376831,205.083664 353.175690,206.970886 
	C355.215393,211.789398 358.817078,216.487640 359.116943,221.397491 
	C359.926636,234.655350 359.828644,248.023331 359.145782,261.299011 
	C358.665771,270.630676 352.986206,277.090973 344.602905,281.294647 
	C342.781738,282.207825 340.913147,284.179901 340.252808,286.077209 
	C333.193207,306.360962 323.318115,325.062744 309.830139,341.825073 
	C309.039581,342.807556 308.196808,344.131683 308.190002,345.301575 
	C308.124969,356.463623 307.571503,367.680756 308.474976,378.774841 
	C309.449280,390.738373 316.269043,399.264374 327.120972,404.643158 
	C352.716431,417.329712 378.296265,430.050812 403.751678,443.014618 
	C409.634247,446.010468 414.992462,450.035858 420.709778,454.146851 
	C416.712830,457.811890 412.616272,460.942108 408.480225,464.019196 
	C389.046692,478.476898 367.906982,489.783600 345.136658,497.999298 
	C327.396698,504.399994 309.309570,509.430359 290.418213,511.097015 
	C289.893585,511.143250 289.470459,512.339844 289.000000,513.000000 
	C267.979095,513.000000 246.958206,513.000000 225.787018,512.646729 
	C224.802017,511.863617 224.008301,511.190186 223.126266,511.041840 
	C214.668915,509.619232 206.038086,508.910980 197.757416,506.812469 
	C169.142471,499.560760 141.868927,488.966736 117.451363,472.008759 
	C108.747147,465.963623 100.432861,459.356995 91.940582,453.006653 
z"/>
<path fill="#000000" opacity="1.000000" stroke="none" 
	d="
M91.631180,452.879822 
	C100.432861,459.356995 108.747147,465.963623 117.451363,472.008759 
	C141.868927,488.966736 169.142471,499.560760 197.757416,506.812469 
	C206.038086,508.910980 214.668915,509.619232 223.126266,511.041840 
	C224.008301,511.190186 224.802017,511.863617 225.318359,512.646729 
	C150.406296,513.000000 75.812599,513.000000 1.000000,513.000000 
	C1.000000,438.645905 1.000000,364.291626 1.000001,289.468658 
	C1.977108,291.774567 3.474646,294.480621 3.850293,297.334381 
	C7.355196,323.960419 16.053246,348.958069 28.023651,372.793518 
	C37.470066,391.603210 48.851162,409.295471 63.326660,424.713409 
	C72.362610,434.337616 81.970520,443.424835 91.631180,452.879822 
z"/>
<path fill="#000000" opacity="1.000000" stroke="none" 
	d="
M289.468658,513.000000 
	C289.470459,512.339844 289.893585,511.143250 290.418213,511.097015 
	C309.309570,509.430359 327.396698,504.399994 345.136658,497.999298 
	C367.906982,489.783600 389.046692,478.476898 408.480225,464.019196 
	C412.616272,460.942108 416.712830,457.811890 420.955627,454.380798 
	C446.050812,433.232117 466.288361,408.597778 482.084167,380.117493 
	C494.864655,357.073792 503.125122,332.512268 508.906799,306.987976 
	C510.262238,301.004089 511.096710,294.902222 512.585449,288.927307 
	C513.000000,363.593719 513.000000,438.187408 513.000000,513.000000 
	C438.645905,513.000000 364.291626,513.000000 289.468658,513.000000 
z"/>
<path fill="#000000" opacity="1.000000" stroke="none" 
	d="
M513.000000,224.531342 
	C512.021667,222.214752 510.539581,219.499176 510.143280,216.633438 
	C506.368866,189.338699 497.605682,163.665390 485.031891,139.267548 
	C476.123688,121.982353 465.395355,105.886726 452.669647,91.112137 
	C435.626831,71.325294 416.350769,54.141350 394.315460,40.106541 
	C369.833557,24.513416 343.370361,13.568825 315.110870,7.079452 
	C307.134949,5.247902 298.948547,4.337761 290.869873,2.940213 
	C290.154266,2.816417 289.521942,2.210839 288.925476,1.414513 
	C363.593719,1.000000 438.187408,1.000000 513.000000,1.000000 
	C513.000000,75.354088 513.000000,149.708389 513.000000,224.531342 
z"/>
<path fill="#000000" opacity="1.000000" stroke="none" 
	d="
M224.531342,0.999999 
	C222.218628,1.977954 219.506454,3.467816 216.645157,3.854656 
	C188.139069,7.708620 161.449234,17.123878 136.170975,30.512585 
	C119.894653,39.133381 104.732300,49.519047 90.765862,61.650604 
	C71.054008,78.772758 53.872665,98.006050 39.929131,120.132561 
	C23.456825,146.271896 11.979038,174.381989 5.931329,204.694458 
	C4.570787,211.513794 3.197526,218.330582 1.415061,225.074280 
	C1.000000,150.406296 1.000000,75.812576 1.000000,1.000000 
	C75.354088,1.000000 149.708389,1.000000 224.531342,0.999999 
z"/>
</svg>